<mxfile host="www.draw.io" modified="2020-01-21T18:26:59.264Z" agent="Mozilla/5.0 (Windows NT 10.0; Win64; x64) AppleWebKit/537.36 (KHTML, like Gecko) Chrome/79.0.3945.117 Safari/537.36" etag="TKnVbvAj4gKmcavDmBfc" version="12.5.5" type="github">
  <diagram id="seqIhZ1TOxw4Ev94oYL4" name="Page-1">
    <mxGraphModel dx="1038" dy="556" grid="1" gridSize="10" guides="1" tooltips="1" connect="1" arrows="1" fold="1" page="1" pageScale="1" pageWidth="1169" pageHeight="827" math="0" shadow="0">
      <root>
        <mxCell id="0"/>
        <mxCell id="1" parent="0"/>
        <mxCell id="0wLA6m_oUpTllqQ1J01X-26" value="" style="rounded=1;whiteSpace=wrap;html=1;fillColor=#dae8fc;strokeColor=#6c8ebf;" vertex="1" parent="1">
          <mxGeometry x="20" y="50" width="290" height="280" as="geometry"/>
        </mxCell>
        <mxCell id="0wLA6m_oUpTllqQ1J01X-11" value="" style="rounded=1;whiteSpace=wrap;html=1;fillColor=#f5f5f5;strokeColor=#666666;fontColor=#333333;" vertex="1" parent="1">
          <mxGeometry x="430.01" y="50" width="429.99" height="280" as="geometry"/>
        </mxCell>
        <mxCell id="0wLA6m_oUpTllqQ1J01X-14" value="" style="rounded=1;whiteSpace=wrap;html=1;fillColor=#dae8fc;strokeColor=#6c8ebf;" vertex="1" parent="1">
          <mxGeometry x="484.29" y="90" width="271.44" height="200" as="geometry"/>
        </mxCell>
        <mxCell id="0wLA6m_oUpTllqQ1J01X-17" value="" style="rounded=1;whiteSpace=wrap;html=1;fillColor=#dae8fc;strokeColor=#6c8ebf;" vertex="1" parent="1">
          <mxGeometry x="580" y="90" width="250" height="200" as="geometry"/>
        </mxCell>
        <mxCell id="0wLA6m_oUpTllqQ1J01X-5" value="Container Registry" style="aspect=fixed;html=1;points=[];align=center;image;fontSize=12;image=img/lib/mscae/Container_Registries.svg;" vertex="1" parent="1">
          <mxGeometry x="239.99999999999997" y="270" width="88.38" height="76" as="geometry"/>
        </mxCell>
        <mxCell id="0wLA6m_oUpTllqQ1J01X-8" value="" style="aspect=fixed;html=1;points=[];align=center;image;fontSize=12;image=img/lib/mscae/Container_Instances.svg;" vertex="1" parent="1">
          <mxGeometry x="750" y="100" width="50" height="50" as="geometry"/>
        </mxCell>
        <mxCell id="0wLA6m_oUpTllqQ1J01X-9" value="" style="pointerEvents=1;shadow=0;dashed=0;html=1;strokeColor=none;fillColor=#4495D1;labelPosition=center;verticalLabelPosition=bottom;verticalAlign=top;align=center;outlineConnect=0;shape=mxgraph.veeam.laptop;" vertex="1" parent="1">
          <mxGeometry x="830.0000000000001" y="290" width="61.76" height="40" as="geometry"/>
        </mxCell>
        <mxCell id="0wLA6m_oUpTllqQ1J01X-12" value="" style="aspect=fixed;html=1;points=[];align=center;image;fontSize=12;image=img/lib/mscae/Docker.svg;" vertex="1" parent="1">
          <mxGeometry x="774.39" y="260" width="55.61" height="45.6" as="geometry"/>
        </mxCell>
        <mxCell id="0wLA6m_oUpTllqQ1J01X-19" value="SQL Server (Windows)" style="shape=image;verticalLabelPosition=bottom;labelBackgroundColor=none;verticalAlign=top;aspect=fixed;imageAspect=0;image=data:image/svg+xml,PHN2ZyB4bWxucz0iaHR0cDovL3d3dy53My5vcmcvMjAwMC9zdmciIHZpZXdCb3g9IjAgMCAxNiAxNiI+PHN0eWxlPi5pY29uLWNhbnZhcy10cmFuc3BhcmVudHtvcGFjaXR5OjA7ZmlsbDojZjZmNmY2fS5pY29uLXZzLWJne2ZpbGw6IzQyNDI0Mn0uaWNvbi12cy1mZ3tmaWxsOiNmMGVmZjF9Lmljb24tdnMtYmx1ZXtmaWxsOiMxYmExZTJ9LmdyYXBoLWZyYW1lLWxpbWV7ZmlsbDojOWVjYTAwfS5pY29uLXZzLW91dHtmaWxsOiNmNmY2ZjZ9PC9zdHlsZT48cGF0aCBjbGFzcz0iaWNvbi1jYW52YXMtdHJhbnNwYXJlbnQiIGQ9Ik0xNiAxNkgwVjBoMTZ2MTZ6IiBpZD0iY2FudmFzIi8+PHBhdGggY2xhc3M9Imljb24tdnMtb3V0IiBkPSJNMTQgNy43NlYzLjI1QzE0IDEuMjc0IDEwLjY3NS4yMjYgNy44OTEgMGgtMi4yN0MyLjcyMi4yMyAwIDEuMzE5IDAgMy4xNTZ2OS41OTVDMCAxNC43NDMgMy4zMTMgMTUuNzc1IDYuMTk1IDE2aDIuMzZjLjU1LS4wNDQgMS4wOS0uMTIgMS42MDMtLjIyNi40MjcuMTM0Ljg3MS4yMjYgMS4zNDIuMjI2QTQuNSA0LjUgMCAwIDAgMTQgNy43NnpNNyA4aDF2LjcwM0E0LjQ1IDQuNDUgMCAwIDAgNy4wNSAxMUg3Vjh6IiBpZD0ib3V0bGluZSIvPjxnIGlkPSJpY29uQmciPjxwYXRoIGNsYXNzPSJncmFwaC1mcmFtZS1saW1lIiBkPSJNNyAxYzIuNzYxIDAgNSAuNzg0IDUgMS43NVM5Ljc2MSA0LjUgNyA0LjVzLTUtLjc4NC01LTEuNzVTNC4yMzkgMSA3IDF6Ii8+PHBhdGggY2xhc3M9Imljb24tdnMtYmx1ZSIgZD0iTTggOC43MDNBNC40NSA0LjQ1IDAgMCAwIDcuMDUgMTFIN1Y4aDF2LjcwM3ptNS01LjEyN3YzLjdBNC40NDUgNC40NDUgMCAwIDAgMTEuNSA3Yy0uMTcxIDAtLjMzNC4wMzItLjUuMDVWN2gtMSAuMDAxYy0uMzU0IDAtLjY5NC41NTQtMS4wMDEuNzZWN0g2djVoMS4wMjlhNC40ODcgNC40ODcgMCAwIDAgMS42NTQgMi45ODNjLS40MTguMDQxLS44NTIuMDY0LTEuMy4wNjRDNC4yODkgMTUuMDQ3IDEgMTMuOTY5IDEgMTIuNzUxVjMuNTc2QzEuNzI1IDUuMDM0IDQuMzY5IDUuNyA3IDUuN3M1LjI3NS0uNjY2IDYtMi4xMjR6TTUgN0gydjNoMnYxSDJ2MWgzVjlIM1Y4aDJWN3ptMy43MjguOThjLS4wOTQuMDc2LS4xOTMuMTQ3LS4yOC4yMzEuMDg5LS4wODMuMTg1LS4xNTYuMjgtLjIzMXoiLz48cGF0aCBjbGFzcz0iaWNvbi12cy1iZyIgZD0iTTE0LjIxNCAxMi4xNThjLS4wNjkuMjg1LS4xODMuNTUtLjMzMS43OTVsLjc2OC45ODRhMy45NzIgMy45NzIgMCAwIDEtLjcxMi43MTNsLS45ODUtLjc2OGMtLjI0NC4xNDktLjUxLjI2Mi0uNzk1LjMzMmwtLjE1NCAxLjIzNGMtLjE2OC4wMjItLjMzMi4wNTItLjUwNS4wNTJzLS4zMzctLjAyOS0uNTA0LS4wNTFsLS4xNTQtMS4yMzRhMi44MDYgMi44MDYgMCAwIDEtLjc5NS0uMzMybC0uOTg1Ljc2N2EzLjk3MiAzLjk3MiAwIDAgMS0uNzEyLS43MTNsLjc2OC0uOTg0YTIuNzkyIDIuNzkyIDAgMCAxLS4zMzEtLjc5NWwtMS4yMzUtLjE1NGMtLjAyMy0uMTY3LS4wNTItLjMzMS0uMDUyLS41MDRzLjAyOS0uMzM3LjA1MS0uNTA0bDEuMjM1LS4xNTRjLjA2OS0uMjg1LjE4My0uNTUxLjMzMS0uNzk1bC0uNzY3LS45ODRjLjIwNy0uMjY4LjQ0NS0uNTA2LjcxMi0uNzEzbC45ODUuNzY4Yy4yNDQtLjE0OC41MS0uMjYyLjc5NS0uMzMxbC4xNTQtMS4yMzVjLjE2Ny0uMDIyLjMzMS0uMDUyLjUwNC0uMDUycy4zMzcuMDI5LjUwNC4wNTFsLjE1NCAxLjIzNWMuMjg1LjA2OS41NTEuMTgzLjc5NS4zMzFsLjk4NS0uNzY4Yy4yNjcuMjA3LjUwNS40NDUuNzEyLjcxM2wtLjc2OC45ODRjLjE0OC4yNDQuMjYyLjUxLjMzMS43OTVsMS4yMzUuMTU0Yy4wMjIuMTY3LjA1MS4zMzEuMDUxLjUwNHMtLjAyOS4zMzctLjA1MS41MDRsLTEuMjM0LjE1NXpNMTEuNSA5LjVhMiAyIDAgMSAwLS4wMDEgNC4wMDFBMiAyIDAgMCAwIDExLjUgOS41em0wIDFhMSAxIDAgMSAwIDAgMiAxIDEgMCAxIDAgMC0yeiIvPjwvZz48ZyBpZD0iaWNvbkZnIj48cGF0aCBjbGFzcz0iaWNvbi12cy1mZyIgZD0iTTEwIDcuMjc2VjdoMXYuMDVhNC40MzEgNC40MzEgMCAwIDAtMSAuMjI2ek0yIDEwaDJ2MUgydjFoM1Y5SDNWOGgyVjdIMnYzem01IDEuNWMwLS4xNzEuMDMyLS4zMzQuMDUtLjVIN1Y4aDF2LjcwM2MuMjg4LS4zNi42MTYtLjY4NiAxLS45NDRWN0g2djVoMS4wNWMtLjAxOC0uMTY2LS4wNS0uMzI5LS4wNS0uNXoiLz48L2c+PC9zdmc+;imageBackground=none;" vertex="1" parent="1">
          <mxGeometry x="80" y="150" width="40" height="40" as="geometry"/>
        </mxCell>
        <mxCell id="0wLA6m_oUpTllqQ1J01X-20" value="CouchBase" style="shape=image;verticalLabelPosition=bottom;labelBackgroundColor=none;verticalAlign=top;aspect=fixed;imageAspect=0;image=data:image/svg+xml,PHN2ZyB4bWxucz0iaHR0cDovL3d3dy53My5vcmcvMjAwMC9zdmciIHdpZHRoPSIyNTAwIiBoZWlnaHQ9IjI1MDAiIHZpZXdCb3g9IjAgMCAyNTYgMjU2IiBwcmVzZXJ2ZUFzcGVjdFJhdGlvPSJ4TWlkWU1pZCI+PHBhdGggZD0iTTEyOCAwQzU3LjQyNiAwIDAgNTcuMjMzIDAgMTI4YzAgNzAuNTc0IDU3LjIzMyAxMjggMTI4IDEyOCA3MC41NzQgMCAxMjgtNTcuMjMzIDEyOC0xMjhTMTk4LjU3NCAwIDEyOCAwem04Ni40MjkgMTUwLjQyOWMwIDcuNzM0LTQuNDQ3IDE0LjUwMi0xMy4xNDggMTYuMDQ4LTE1LjA4MiAyLjcwNy00Ni43OTIgNC4yNTQtNzMuMjgxIDQuMjU0LTI2LjQ5IDAtNTguMi0xLjU0Ny03My4yODEtNC4yNTQtOC43LTEuNTQ2LTEzLjE0OC04LjMxNC0xMy4xNDgtMTYuMDQ4di00OS44ODVjMC03LjczNCA1Ljk5NC0xNC44ODggMTMuMTQ4LTE2LjA0OSA0LjQ0Ny0uNzczIDE0Ljg4OC0xLjU0NiAyMy4wMS0xLjU0NiAzLjA5MyAwIDUuNjA2IDIuMzIgNS42MDYgNS45OTR2MzQuOTk3bDQ0Ljg1OC0uOTY3IDQ0Ljg1OC45NjdWODguOTQzYzAtMy42NzQgMi41MTQtNS45OTQgNS42MDgtNS45OTQgOC4xMiAwIDE4LjU2Mi43NzMgMjMuMDA5IDEuNTQ2IDcuMzQ3IDEuMTYgMTMuMTQ4IDguMzE1IDEzLjE0OCAxNi4wNDktLjM4NyAxNi40MzUtLjM4NyAzMy4yNTctLjM4NyA0OS44ODV6IiBmaWxsPSIjRUQyMjI2Ii8+PC9zdmc+;" vertex="1" parent="1">
          <mxGeometry x="80" y="80" width="40" height="40" as="geometry"/>
        </mxCell>
        <mxCell id="0wLA6m_oUpTllqQ1J01X-21" value="" style="rounded=1;whiteSpace=wrap;html=1;fillColor=#dae8fc;strokeColor=#6c8ebf;" vertex="1" parent="1">
          <mxGeometry x="460" y="90" width="180" height="200" as="geometry"/>
        </mxCell>
        <mxCell id="0wLA6m_oUpTllqQ1J01X-22" value="Container Images" style="text;html=1;align=center;verticalAlign=middle;resizable=0;points=[];autosize=1;fontStyle=1" vertex="1" parent="1">
          <mxGeometry x="490" y="70" width="120" height="20" as="geometry"/>
        </mxCell>
        <mxCell id="0wLA6m_oUpTllqQ1J01X-24" value="SQL Server (Linux)" style="shape=image;verticalLabelPosition=bottom;labelBackgroundColor=none;verticalAlign=top;aspect=fixed;imageAspect=0;image=data:image/svg+xml,PHN2ZyB4bWxucz0iaHR0cDovL3d3dy53My5vcmcvMjAwMC9zdmciIHZpZXdCb3g9IjAgMCAxNiAxNiI+PHN0eWxlPi5pY29uLWNhbnZhcy10cmFuc3BhcmVudHtvcGFjaXR5OjA7ZmlsbDojZjZmNmY2fS5pY29uLXZzLWJne2ZpbGw6IzQyNDI0Mn0uaWNvbi12cy1mZ3tmaWxsOiNmMGVmZjF9Lmljb24tdnMtYmx1ZXtmaWxsOiMxYmExZTJ9LmdyYXBoLWZyYW1lLWxpbWV7ZmlsbDojOWVjYTAwfS5pY29uLXZzLW91dHtmaWxsOiNmNmY2ZjZ9PC9zdHlsZT48cGF0aCBjbGFzcz0iaWNvbi1jYW52YXMtdHJhbnNwYXJlbnQiIGQ9Ik0xNiAxNkgwVjBoMTZ2MTZ6IiBpZD0iY2FudmFzIi8+PHBhdGggY2xhc3M9Imljb24tdnMtb3V0IiBkPSJNMTQgNy43NlYzLjI1QzE0IDEuMjc0IDEwLjY3NS4yMjYgNy44OTEgMGgtMi4yN0MyLjcyMi4yMyAwIDEuMzE5IDAgMy4xNTZ2OS41OTVDMCAxNC43NDMgMy4zMTMgMTUuNzc1IDYuMTk1IDE2aDIuMzZjLjU1LS4wNDQgMS4wOS0uMTIgMS42MDMtLjIyNi40MjcuMTM0Ljg3MS4yMjYgMS4zNDIuMjI2QTQuNSA0LjUgMCAwIDAgMTQgNy43NnpNNyA4aDF2LjcwM0E0LjQ1IDQuNDUgMCAwIDAgNy4wNSAxMUg3Vjh6IiBpZD0ib3V0bGluZSIvPjxnIGlkPSJpY29uQmciPjxwYXRoIGNsYXNzPSJncmFwaC1mcmFtZS1saW1lIiBkPSJNNyAxYzIuNzYxIDAgNSAuNzg0IDUgMS43NVM5Ljc2MSA0LjUgNyA0LjVzLTUtLjc4NC01LTEuNzVTNC4yMzkgMSA3IDF6Ii8+PHBhdGggY2xhc3M9Imljb24tdnMtYmx1ZSIgZD0iTTggOC43MDNBNC40NSA0LjQ1IDAgMCAwIDcuMDUgMTFIN1Y4aDF2LjcwM3ptNS01LjEyN3YzLjdBNC40NDUgNC40NDUgMCAwIDAgMTEuNSA3Yy0uMTcxIDAtLjMzNC4wMzItLjUuMDVWN2gtMSAuMDAxYy0uMzU0IDAtLjY5NC41NTQtMS4wMDEuNzZWN0g2djVoMS4wMjlhNC40ODcgNC40ODcgMCAwIDAgMS42NTQgMi45ODNjLS40MTguMDQxLS44NTIuMDY0LTEuMy4wNjRDNC4yODkgMTUuMDQ3IDEgMTMuOTY5IDEgMTIuNzUxVjMuNTc2QzEuNzI1IDUuMDM0IDQuMzY5IDUuNyA3IDUuN3M1LjI3NS0uNjY2IDYtMi4xMjR6TTUgN0gydjNoMnYxSDJ2MWgzVjlIM1Y4aDJWN3ptMy43MjguOThjLS4wOTQuMDc2LS4xOTMuMTQ3LS4yOC4yMzEuMDg5LS4wODMuMTg1LS4xNTYuMjgtLjIzMXoiLz48cGF0aCBjbGFzcz0iaWNvbi12cy1iZyIgZD0iTTE0LjIxNCAxMi4xNThjLS4wNjkuMjg1LS4xODMuNTUtLjMzMS43OTVsLjc2OC45ODRhMy45NzIgMy45NzIgMCAwIDEtLjcxMi43MTNsLS45ODUtLjc2OGMtLjI0NC4xNDktLjUxLjI2Mi0uNzk1LjMzMmwtLjE1NCAxLjIzNGMtLjE2OC4wMjItLjMzMi4wNTItLjUwNS4wNTJzLS4zMzctLjAyOS0uNTA0LS4wNTFsLS4xNTQtMS4yMzRhMi44MDYgMi44MDYgMCAwIDEtLjc5NS0uMzMybC0uOTg1Ljc2N2EzLjk3MiAzLjk3MiAwIDAgMS0uNzEyLS43MTNsLjc2OC0uOTg0YTIuNzkyIDIuNzkyIDAgMCAxLS4zMzEtLjc5NWwtMS4yMzUtLjE1NGMtLjAyMy0uMTY3LS4wNTItLjMzMS0uMDUyLS41MDRzLjAyOS0uMzM3LjA1MS0uNTA0bDEuMjM1LS4xNTRjLjA2OS0uMjg1LjE4My0uNTUxLjMzMS0uNzk1bC0uNzY3LS45ODRjLjIwNy0uMjY4LjQ0NS0uNTA2LjcxMi0uNzEzbC45ODUuNzY4Yy4yNDQtLjE0OC41MS0uMjYyLjc5NS0uMzMxbC4xNTQtMS4yMzVjLjE2Ny0uMDIyLjMzMS0uMDUyLjUwNC0uMDUycy4zMzcuMDI5LjUwNC4wNTFsLjE1NCAxLjIzNWMuMjg1LjA2OS41NTEuMTgzLjc5NS4zMzFsLjk4NS0uNzY4Yy4yNjcuMjA3LjUwNS40NDUuNzEyLjcxM2wtLjc2OC45ODRjLjE0OC4yNDQuMjYyLjUxLjMzMS43OTVsMS4yMzUuMTU0Yy4wMjIuMTY3LjA1MS4zMzEuMDUxLjUwNHMtLjAyOS4zMzctLjA1MS41MDRsLTEuMjM0LjE1NXpNMTEuNSA5LjVhMiAyIDAgMSAwLS4wMDEgNC4wMDFBMiAyIDAgMCAwIDExLjUgOS41em0wIDFhMSAxIDAgMSAwIDAgMiAxIDEgMCAxIDAgMC0yeiIvPjwvZz48ZyBpZD0iaWNvbkZnIj48cGF0aCBjbGFzcz0iaWNvbi12cy1mZyIgZD0iTTEwIDcuMjc2VjdoMXYuMDVhNC40MzEgNC40MzEgMCAwIDAtMSAuMjI2ek0yIDEwaDJ2MUgydjFoM1Y5SDNWOGgyVjdIMnYzem01IDEuNWMwLS4xNzEuMDMyLS4zMzQuMDUtLjVIN1Y4aDF2LjcwM2MuMjg4LS4zNi42MTYtLjY4NiAxLS45NDRWN0g2djVoMS4wNWMtLjAxOC0uMTY2LS4wNS0uMzI5LS4wNS0uNXoiLz48L2c+PC9zdmc+;" vertex="1" parent="1">
          <mxGeometry x="80" y="230" width="40" height="40" as="geometry"/>
        </mxCell>
        <mxCell id="0wLA6m_oUpTllqQ1J01X-27" value="SQL Server (Windows)" style="shape=image;verticalLabelPosition=bottom;labelBackgroundColor=none;verticalAlign=top;aspect=fixed;imageAspect=0;image=data:image/svg+xml,PHN2ZyB4bWxucz0iaHR0cDovL3d3dy53My5vcmcvMjAwMC9zdmciIHZpZXdCb3g9IjAgMCAxNiAxNiI+PHN0eWxlPi5pY29uLWNhbnZhcy10cmFuc3BhcmVudHtvcGFjaXR5OjA7ZmlsbDojZjZmNmY2fS5pY29uLXZzLWJne2ZpbGw6IzQyNDI0Mn0uaWNvbi12cy1mZ3tmaWxsOiNmMGVmZjF9Lmljb24tdnMtYmx1ZXtmaWxsOiMxYmExZTJ9LmdyYXBoLWZyYW1lLWxpbWV7ZmlsbDojOWVjYTAwfS5pY29uLXZzLW91dHtmaWxsOiNmNmY2ZjZ9PC9zdHlsZT48cGF0aCBjbGFzcz0iaWNvbi1jYW52YXMtdHJhbnNwYXJlbnQiIGQ9Ik0xNiAxNkgwVjBoMTZ2MTZ6IiBpZD0iY2FudmFzIi8+PHBhdGggY2xhc3M9Imljb24tdnMtb3V0IiBkPSJNMTQgNy43NlYzLjI1QzE0IDEuMjc0IDEwLjY3NS4yMjYgNy44OTEgMGgtMi4yN0MyLjcyMi4yMyAwIDEuMzE5IDAgMy4xNTZ2OS41OTVDMCAxNC43NDMgMy4zMTMgMTUuNzc1IDYuMTk1IDE2aDIuMzZjLjU1LS4wNDQgMS4wOS0uMTIgMS42MDMtLjIyNi40MjcuMTM0Ljg3MS4yMjYgMS4zNDIuMjI2QTQuNSA0LjUgMCAwIDAgMTQgNy43NnpNNyA4aDF2LjcwM0E0LjQ1IDQuNDUgMCAwIDAgNy4wNSAxMUg3Vjh6IiBpZD0ib3V0bGluZSIvPjxnIGlkPSJpY29uQmciPjxwYXRoIGNsYXNzPSJncmFwaC1mcmFtZS1saW1lIiBkPSJNNyAxYzIuNzYxIDAgNSAuNzg0IDUgMS43NVM5Ljc2MSA0LjUgNyA0LjVzLTUtLjc4NC01LTEuNzVTNC4yMzkgMSA3IDF6Ii8+PHBhdGggY2xhc3M9Imljb24tdnMtYmx1ZSIgZD0iTTggOC43MDNBNC40NSA0LjQ1IDAgMCAwIDcuMDUgMTFIN1Y4aDF2LjcwM3ptNS01LjEyN3YzLjdBNC40NDUgNC40NDUgMCAwIDAgMTEuNSA3Yy0uMTcxIDAtLjMzNC4wMzItLjUuMDVWN2gtMSAuMDAxYy0uMzU0IDAtLjY5NC41NTQtMS4wMDEuNzZWN0g2djVoMS4wMjlhNC40ODcgNC40ODcgMCAwIDAgMS42NTQgMi45ODNjLS40MTguMDQxLS44NTIuMDY0LTEuMy4wNjRDNC4yODkgMTUuMDQ3IDEgMTMuOTY5IDEgMTIuNzUxVjMuNTc2QzEuNzI1IDUuMDM0IDQuMzY5IDUuNyA3IDUuN3M1LjI3NS0uNjY2IDYtMi4xMjR6TTUgN0gydjNoMnYxSDJ2MWgzVjlIM1Y4aDJWN3ptMy43MjguOThjLS4wOTQuMDc2LS4xOTMuMTQ3LS4yOC4yMzEuMDg5LS4wODMuMTg1LS4xNTYuMjgtLjIzMXoiLz48cGF0aCBjbGFzcz0iaWNvbi12cy1iZyIgZD0iTTE0LjIxNCAxMi4xNThjLS4wNjkuMjg1LS4xODMuNTUtLjMzMS43OTVsLjc2OC45ODRhMy45NzIgMy45NzIgMCAwIDEtLjcxMi43MTNsLS45ODUtLjc2OGMtLjI0NC4xNDktLjUxLjI2Mi0uNzk1LjMzMmwtLjE1NCAxLjIzNGMtLjE2OC4wMjItLjMzMi4wNTItLjUwNS4wNTJzLS4zMzctLjAyOS0uNTA0LS4wNTFsLS4xNTQtMS4yMzRhMi44MDYgMi44MDYgMCAwIDEtLjc5NS0uMzMybC0uOTg1Ljc2N2EzLjk3MiAzLjk3MiAwIDAgMS0uNzEyLS43MTNsLjc2OC0uOTg0YTIuNzkyIDIuNzkyIDAgMCAxLS4zMzEtLjc5NWwtMS4yMzUtLjE1NGMtLjAyMy0uMTY3LS4wNTItLjMzMS0uMDUyLS41MDRzLjAyOS0uMzM3LjA1MS0uNTA0bDEuMjM1LS4xNTRjLjA2OS0uMjg1LjE4My0uNTUxLjMzMS0uNzk1bC0uNzY3LS45ODRjLjIwNy0uMjY4LjQ0NS0uNTA2LjcxMi0uNzEzbC45ODUuNzY4Yy4yNDQtLjE0OC41MS0uMjYyLjc5NS0uMzMxbC4xNTQtMS4yMzVjLjE2Ny0uMDIyLjMzMS0uMDUyLjUwNC0uMDUycy4zMzcuMDI5LjUwNC4wNTFsLjE1NCAxLjIzNWMuMjg1LjA2OS41NTEuMTgzLjc5NS4zMzFsLjk4NS0uNzY4Yy4yNjcuMjA3LjUwNS40NDUuNzEyLjcxM2wtLjc2OC45ODRjLjE0OC4yNDQuMjYyLjUxLjMzMS43OTVsMS4yMzUuMTU0Yy4wMjIuMTY3LjA1MS4zMzEuMDUxLjUwNHMtLjAyOS4zMzctLjA1MS41MDRsLTEuMjM0LjE1NXpNMTEuNSA5LjVhMiAyIDAgMSAwLS4wMDEgNC4wMDFBMiAyIDAgMCAwIDExLjUgOS41em0wIDFhMSAxIDAgMSAwIDAgMiAxIDEgMCAxIDAgMC0yeiIvPjwvZz48ZyBpZD0iaWNvbkZnIj48cGF0aCBjbGFzcz0iaWNvbi12cy1mZyIgZD0iTTEwIDcuMjc2VjdoMXYuMDVhNC40MzEgNC40MzEgMCAwIDAtMSAuMjI2ek0yIDEwaDJ2MUgydjFoM1Y5SDNWOGgyVjdIMnYzem01IDEuNWMwLS4xNzEuMDMyLS4zMzQuMDUtLjVIN1Y4aDF2LjcwM2MuMjg4LS4zNi42MTYtLjY4NiAxLS45NDRWN0g2djVoMS4wNWMtLjAxOC0uMTY2LS4wNS0uMzI5LS4wNS0uNXoiLz48L2c+PC9zdmc+;imageBackground=none;" vertex="1" parent="1">
          <mxGeometry x="530" y="100" width="40" height="40" as="geometry"/>
        </mxCell>
        <mxCell id="0wLA6m_oUpTllqQ1J01X-28" value="SQL Server (Linux)" style="shape=image;verticalLabelPosition=bottom;labelBackgroundColor=none;verticalAlign=top;aspect=fixed;imageAspect=0;image=data:image/svg+xml,PHN2ZyB4bWxucz0iaHR0cDovL3d3dy53My5vcmcvMjAwMC9zdmciIHZpZXdCb3g9IjAgMCAxNiAxNiI+PHN0eWxlPi5pY29uLWNhbnZhcy10cmFuc3BhcmVudHtvcGFjaXR5OjA7ZmlsbDojZjZmNmY2fS5pY29uLXZzLWJne2ZpbGw6IzQyNDI0Mn0uaWNvbi12cy1mZ3tmaWxsOiNmMGVmZjF9Lmljb24tdnMtYmx1ZXtmaWxsOiMxYmExZTJ9LmdyYXBoLWZyYW1lLWxpbWV7ZmlsbDojOWVjYTAwfS5pY29uLXZzLW91dHtmaWxsOiNmNmY2ZjZ9PC9zdHlsZT48cGF0aCBjbGFzcz0iaWNvbi1jYW52YXMtdHJhbnNwYXJlbnQiIGQ9Ik0xNiAxNkgwVjBoMTZ2MTZ6IiBpZD0iY2FudmFzIi8+PHBhdGggY2xhc3M9Imljb24tdnMtb3V0IiBkPSJNMTQgNy43NlYzLjI1QzE0IDEuMjc0IDEwLjY3NS4yMjYgNy44OTEgMGgtMi4yN0MyLjcyMi4yMyAwIDEuMzE5IDAgMy4xNTZ2OS41OTVDMCAxNC43NDMgMy4zMTMgMTUuNzc1IDYuMTk1IDE2aDIuMzZjLjU1LS4wNDQgMS4wOS0uMTIgMS42MDMtLjIyNi40MjcuMTM0Ljg3MS4yMjYgMS4zNDIuMjI2QTQuNSA0LjUgMCAwIDAgMTQgNy43NnpNNyA4aDF2LjcwM0E0LjQ1IDQuNDUgMCAwIDAgNy4wNSAxMUg3Vjh6IiBpZD0ib3V0bGluZSIvPjxnIGlkPSJpY29uQmciPjxwYXRoIGNsYXNzPSJncmFwaC1mcmFtZS1saW1lIiBkPSJNNyAxYzIuNzYxIDAgNSAuNzg0IDUgMS43NVM5Ljc2MSA0LjUgNyA0LjVzLTUtLjc4NC01LTEuNzVTNC4yMzkgMSA3IDF6Ii8+PHBhdGggY2xhc3M9Imljb24tdnMtYmx1ZSIgZD0iTTggOC43MDNBNC40NSA0LjQ1IDAgMCAwIDcuMDUgMTFIN1Y4aDF2LjcwM3ptNS01LjEyN3YzLjdBNC40NDUgNC40NDUgMCAwIDAgMTEuNSA3Yy0uMTcxIDAtLjMzNC4wMzItLjUuMDVWN2gtMSAuMDAxYy0uMzU0IDAtLjY5NC41NTQtMS4wMDEuNzZWN0g2djVoMS4wMjlhNC40ODcgNC40ODcgMCAwIDAgMS42NTQgMi45ODNjLS40MTguMDQxLS44NTIuMDY0LTEuMy4wNjRDNC4yODkgMTUuMDQ3IDEgMTMuOTY5IDEgMTIuNzUxVjMuNTc2QzEuNzI1IDUuMDM0IDQuMzY5IDUuNyA3IDUuN3M1LjI3NS0uNjY2IDYtMi4xMjR6TTUgN0gydjNoMnYxSDJ2MWgzVjlIM1Y4aDJWN3ptMy43MjguOThjLS4wOTQuMDc2LS4xOTMuMTQ3LS4yOC4yMzEuMDg5LS4wODMuMTg1LS4xNTYuMjgtLjIzMXoiLz48cGF0aCBjbGFzcz0iaWNvbi12cy1iZyIgZD0iTTE0LjIxNCAxMi4xNThjLS4wNjkuMjg1LS4xODMuNTUtLjMzMS43OTVsLjc2OC45ODRhMy45NzIgMy45NzIgMCAwIDEtLjcxMi43MTNsLS45ODUtLjc2OGMtLjI0NC4xNDktLjUxLjI2Mi0uNzk1LjMzMmwtLjE1NCAxLjIzNGMtLjE2OC4wMjItLjMzMi4wNTItLjUwNS4wNTJzLS4zMzctLjAyOS0uNTA0LS4wNTFsLS4xNTQtMS4yMzRhMi44MDYgMi44MDYgMCAwIDEtLjc5NS0uMzMybC0uOTg1Ljc2N2EzLjk3MiAzLjk3MiAwIDAgMS0uNzEyLS43MTNsLjc2OC0uOTg0YTIuNzkyIDIuNzkyIDAgMCAxLS4zMzEtLjc5NWwtMS4yMzUtLjE1NGMtLjAyMy0uMTY3LS4wNTItLjMzMS0uMDUyLS41MDRzLjAyOS0uMzM3LjA1MS0uNTA0bDEuMjM1LS4xNTRjLjA2OS0uMjg1LjE4My0uNTUxLjMzMS0uNzk1bC0uNzY3LS45ODRjLjIwNy0uMjY4LjQ0NS0uNTA2LjcxMi0uNzEzbC45ODUuNzY4Yy4yNDQtLjE0OC41MS0uMjYyLjc5NS0uMzMxbC4xNTQtMS4yMzVjLjE2Ny0uMDIyLjMzMS0uMDUyLjUwNC0uMDUycy4zMzcuMDI5LjUwNC4wNTFsLjE1NCAxLjIzNWMuMjg1LjA2OS41NTEuMTgzLjc5NS4zMzFsLjk4NS0uNzY4Yy4yNjcuMjA3LjUwNS40NDUuNzEyLjcxM2wtLjc2OC45ODRjLjE0OC4yNDQuMjYyLjUxLjMzMS43OTVsMS4yMzUuMTU0Yy4wMjIuMTY3LjA1MS4zMzEuMDUxLjUwNHMtLjAyOS4zMzctLjA1MS41MDRsLTEuMjM0LjE1NXpNMTEuNSA5LjVhMiAyIDAgMSAwLS4wMDEgNC4wMDFBMiAyIDAgMCAwIDExLjUgOS41em0wIDFhMSAxIDAgMSAwIDAgMiAxIDEgMCAxIDAgMC0yeiIvPjwvZz48ZyBpZD0iaWNvbkZnIj48cGF0aCBjbGFzcz0iaWNvbi12cy1mZyIgZD0iTTEwIDcuMjc2VjdoMXYuMDVhNC40MzEgNC40MzEgMCAwIDAtMSAuMjI2ek0yIDEwaDJ2MUgydjFoM1Y5SDNWOGgyVjdIMnYzem01IDEuNWMwLS4xNzEuMDMyLS4zMzQuMDUtLjVIN1Y4aDF2LjcwM2MuMjg4LS4zNi42MTYtLjY4NiAxLS45NDRWN0g2djVoMS4wNWMtLjAxOC0uMTY2LS4wNS0uMzI5LS4wNS0uNXoiLz48L2c+PC9zdmc+;" vertex="1" parent="1">
          <mxGeometry x="530" y="180" width="40" height="40" as="geometry"/>
        </mxCell>
        <mxCell id="0wLA6m_oUpTllqQ1J01X-29" value="&lt;span&gt;Running Container&amp;nbsp;Instance&lt;/span&gt;" style="text;html=1;align=center;verticalAlign=middle;resizable=0;points=[];autosize=1;labelBackgroundColor=none;fontStyle=1" vertex="1" parent="1">
          <mxGeometry x="630" y="70" width="180" height="20" as="geometry"/>
        </mxCell>
      </root>
    </mxGraphModel>
  </diagram>
</mxfile>
